<svg xmlns="http://www.w3.org/2000/svg" width="800" height="800"><g><path fill="#E6BBBE" d="M346.5 344.2l-2.8-3.4 4.1-18.5-1.3 21.9z"/><path fill="#EAD9DD" d="M344 332.5l-.3 8.3 4.1-18.5-3.8 10.2z"/><path fill="#EEDFE3" d="M346 307.1l1.8 15.2.4-22.1-2.2 6.9z"/><path fill="#D5B0BA" d="M347.8 322.3l.4-22.1 4.7-.7-5.1 22.8z"/><path fill="#DDC0C8" d="M348.2 300.2l-.7-4.5 5.4 3.8-4.7.7z"/><path fill="#E0AAAE" d="M349.8 292.3l-2.3 3.4 5.4 3.8-3.1-7.2z"/><path fill="#CA8D94" d="M353.3 293.9l-3.5-1.6 3.1 7.2.4-5.6z"/><path fill="#8D3048" d="M469.3 360.4l3.8-2.5-1.6-17.1-2.2 19.6z"/><path fill="#A44950" d="M476.2 351.2l-3.1 6.7-1.6-17.1 4.7 10.4z"/><path fill="#973A4D" d="M476.5 336l-.3 15.2-4.7-10.4 5-4.8z"/><path fill="#922D50" d="M471.5 340.8l5-4.8-2.5-14.7-2.5 19.5z"/><path fill="#BF6D71" d="M476.5 336l2.6-12.2-5.1-2.5 2.5 14.7z"/><path fill="#973A4D" d="M476.5 336l4.5-7.3-1.9-4.9-2.6 12.2z"/><path fill="#C4808F" d="M481.4 317.6l-2.3 6.2-5.1-2.5 7.4-3.7z"/><path fill="#8E3147" d="M481 328.7l.4-11.1-2.3 6.2 1.9 4.9z"/><path fill="#BB7573" d="M481 328.7l3.5-7.3-3.1-3.8-.4 11.1z"/><path fill="#E0AAAE" d="M479.5 313.8l1.9 3.8-7.4 3.7 5.5-7.5z"/><path fill="#DFA9A3" d="M479.5 313.8l6 1.3-4.1 2.5-1.9-3.8z"/><path fill="#E7D2DB" d="M485.5 315.1l-1 6.3-3.1-3.8 4.1-2.5z"/></g><g><path fill="#99576B" d="M356.7 261.1l4.8 2.1-8.2 30.7 3.4-32.8z"/><path fill="#7F3D55" d="M371.6 245l-14.9 16.1 4.8 2.1 10.1-18.2z"/><path fill="#6B2349" d="M365 235l6.6 10-14.9 16.1L365 235z"/><path fill="#510B42" d="M366 234l5.6 11-1.6-5.9-4-5.1z"/><path fill="#A16B85" d="M370.8 238.8l2.2 5.2-1-16-1.2 10.8z"/><path fill="#7E3C64" d="M373 244l-1-16 12-14-11 30z"/><path fill="#5F164B" d="M395.1 238.9L384 214l-11 30 22.1-5.1z"/><path fill="#631A51" d="M422 203l-26.9 35.9L384 214l38-11z"/><path fill="#7E3C64" d="M422 203l-22 1-16 10 38-11z"/><path fill="#510B42" d="M420.2 239.2l-25.1-.3L422 203l-1.8 36.2z"/><path fill="#59144A" d="M461.2 212.9l-41 26.3L422 203l39.2 9.9z"/><path fill="#6C2559" d="M422 203l20-3 19.2 12.9L422 203z"/><path fill="#5F164B" d="M458.2 247.1l3-34.2-41 26.3 38 7.9z"/><path fill="#530B40" d="M461.2 212.9l23.7 35.9-26.7-1.7 3-34.2z"/><path fill="#611142" d="M461.2 212.9l16.2 7.6 7.5 28.3-23.7-35.9z"/><path fill="#591044" d="M488.5 236.6l-3.6 12.2-7.5-28.3 11.1 16.1z"/><path fill="#4C0438" d="M491.9 259.4l-7-10.6 3.6-12.2 3.4 22.8z"/><path fill="#6E1B47" d="M474.8 262.7l10.1-13.9-26.5-1.7 16.4 15.6z"/><path fill="#5F164B" d="M487.9 286.4l-13.1-23.7 10.1-13.9 3 37.6z"/><path fill="#530A39" d="M484.9 248.8l7.2 18.5-4.2 19.1-3-37.6z"/><path fill="#7F3D55" d="M478.2 282.2l9.7 4.2-13.1-23.7 3.4 19.5z"/><path fill="#742C4B" d="M479.5 313.8l8.4-27.4-9.7-4.2 1.3 31.6z"/><path fill="#7F3D55" d="M479.5 313.8l-5.5 7.5 4.2-39.1 1.3 31.6z"/></g><g><path fill="#DDC0C8" d="M361.5 263.2l-8.2 30.7 5.5-3.3 2.7-27.4z"/><path fill="#CA8D94" d="M361.5 263.2l-2.7 27.4 11.6-8.3-8.9-19.1z"/><path fill="#C9838D" d="M361.5 263.2l8.9 19.1 1.2-37.3-10.1 18.2z"/><path fill="#C57D89" d="M370.4 282.3L373 244l-1.4 1-1.2 37.3z"/><path fill="#E0AAAE" d="M373 244l-1.4 1-.8-6.2 2.2 5.2z"/><path fill="#CA8891" d="M370 239.1l.8-.3.8 6.2-1.6-5.9z"/><path fill="#B86B7D" d="M370.4 282.3l33.8-26.6L373 244l-2.6 38.3z"/><path fill="#BF7784" d="M404.2 255.7l-7.9 37.2-25.9-10.6 33.8-26.6z"/><path fill="#C57D8A" d="M404.2 255.7L373 244l22.1-5.1 9.1 16.8z"/><path fill="#CA8891" d="M420.2 239.2l-25.1-.3 9.1 16.8 16-16.5z"/><path fill="#C9838D" d="M408.1 302l-11.8-9.1 3.3 7.2 8.5 1.9z"/><path fill="#C98791" d="M422.5 294.6l-14.4 7.4-11.8-9.1 26.2 1.7z"/><path fill="#C4808F" d="M418.7 302h-10.6l14.4-7.4-3.8 7.4zM396.3 292.9l26.2 1.7-18.3-38.9-7.9 37.2z"/><path fill="#CA8D94" d="M404.2 255.7l18.3 38.9 9-39.5-27.3.6z"/><path fill="#E0AAAE" d="M404.2 255.7l16-16.5 11.3 15.9-27.3.6z"/><path fill="#AC6378" d="M420.2 239.2l38.2 7.9-26.9 8-11.3-15.9z"/><path fill="#A35169" d="M458.4 247.1l-26.9 8 21.8 35.5 5.1-43.5z"/><path fill="#A85C73" d="M431.5 255.1l21.8 35.5-30.8 4 9-39.5z"/><path fill="#954659" d="M458.4 247.1l-5.1 43.5 24.9-8.4-19.8-35.1z"/><path fill="#99586B" d="M478.2 282.2l-3.4-19.5-16.4-15.6 19.8 35.1z"/><path fill="#9C4A59" d="M478.2 282.2l-13.5 23.2-11.4-14.8 24.9-8.4z"/><path fill="#954659" d="M464.7 305.4l9.3 15.9 4.2-39.1-13.5 23.2z"/></g><g><path fill="#7E3C64" d="M358.8 290.6l11.6-8.3 4.7 9.3-16.3-1z"/><path fill="#631A51" d="M396.3 292.9l-25.9-10.6 4.7 9.3 21.2 1.3z"/><path fill="#510B42" d="M399.6 300.1l-3.3-7.2-21.2-1.3 24.5 8.5z"/><path fill="#4C0438" d="M464.7 305.4l-11.4-14.8-8 8 19.4 6.8z"/><path fill="#611142" d="M422.5 294.6l30.8-4-8 8-22.8-4z"/><path fill="#5F164B" d="M418.7 302l26.6-3.4-22.8-4-3.8 7.4z"/></g><g><path fill="#311A00" d="M373.8 314.9l6.4.6-2.3-8.2-4.1 7.6z"/><path fill="#412200" d="M371.2 309.8l2.6 5.1 4.1-7.6-6.7 2.5z"/><path fill="#211100" d="M383 312.1l-2.8 3.4-2.3-8.2 5.1 4.8z"/><path fill="#100800" d="M383.4 309.2l-.4 2.9-5.1-4.8 5.5 1.9z"/><path fill="#674E33" d="M371.7 306.9l-.5 2.9 6.7-2.5-6.2-.4z"/><path fill="#FFF3F7" d="M367.7 312.1l-2.3-3.3 5.8 1-3.5 2.3z"/><path fill="#FFE7F0" d="M371.7 306.9l-.5 2.9-5.8-1 6.3-1.9zM373.8 314.9l-6.1-2.8 3.5-2.3 2.6 5.1z"/><path fill="#FFD0E1" d="M386.1 314.8l2.4-.7-5.1-4.9 2.7 5.6z"/><path fill="#FFF3F7" d="M383 312.1l.4-2.9 2.7 5.6-3.1-2.7z"/><path fill="#FFE7F0" d="M380.2 315.5l5.9-.7-3.1-2.7-2.8 3.4z"/><path fill="#510B42" d="M383.4 309.2l7.7 5-2.6-.1-5.1-4.9z"/><path fill="#FFF3F7" d="M391.1 314.2l-2.6-.1-2.4.7 5-.6z"/><path fill="#7E3C64" d="M362.9 307.8l2.5 1 2.3 3.3-4.8-4.3z"/><path fill="#631A51" d="M371.7 306.9l-8.8.9 2.5 1 6.3-1.9z"/><path fill="#311A00" d="M435.7 323.6l6.8 1.3-1.5-9.1-5.3 7.8z"/><path fill="#412200" d="M433.3 318.6l2.4 5 5.3-7.8-7.7 2.8z"/><path fill="#211100" d="M445.7 320.9l-3.2 4-1.5-9.1 4.7 5.1z"/><path fill="#100800" d="M446.4 317.8l-.7 3.1-4.7-5.1 5.4 2z"/><path fill="#674E33" d="M433.3 318.6l.5-3.4 7.2.6-7.7 2.8z"/><path fill="#FFE7F0" d="M445.7 320.9l5.6.6-4.9-3.7-.7 3.1z"/><path fill="#FFF3F7" d="M447.1 324.1l4.2-2.6-5.6-.6 1.4 3.2z"/><path fill="#FFDCE8" d="M442.5 324.9l4.6-.8-1.4-3.2-3.2 4z"/><path fill="#FFD0E1" d="M427.5 320.6l-2.3-1 8.6-4.4-6.3 5.4z"/><path fill="#FFF3F7" d="M433.3 318.6l-5.8 2 6.3-5.4-.5 3.4z"/><path fill="#FFE7F0" d="M435.7 323.6l-8.2-3 5.8-2 2.4 5z"/><path fill="#4C0438" d="M433.8 315.2l-11.1 4.1 2.5.3 8.6-4.4z"/><path fill="#FFF3F7" d="M422.7 319.3l2.5.3 2.3 1-4.8-1.3z"/><path fill="#4C0438" d="M454.4 320.9l-8-3.1 4.9 3.7 3.1-.6z"/><path fill="#6E1B47" d="M447.1 324.1l4.2-2.6 3.1-.6-7.3 3.2z"/></g><g><path fill="#C4808F" d="M386.1 314.8l.9 5.6 4.1-6.2-5 .6z"/><path fill="#EAD9DD" d="M362.9 307.8l-3.4 1.4 4.4 12-1-13.4z"/><path fill="#BF7784" d="M380.2 315.5l6.8 4.9-.9-5.6-5.9.7z"/><path fill="#CA8D94" d="M377.1 322.4l3.1-6.9 6.8 4.9-9.9 2z"/><path fill="#E6BBBE" d="M373.8 314.9l-9.9 6.3 3.8-9.1 6.1 2.8z"/><path fill="#C4808F" d="M380.2 315.5l-3.1 6.9-3.3-7.5 6.4.6z"/><path fill="#E0AAAE" d="M363.9 321.2l13.2 1.2-3.3-7.5-9.9 6.3z"/><path fill="#ECCCCE" d="M367.7 312.1l-3.8 9.1-1-13.4 4.8 4.3z"/><path fill="#CA8D94" d="M377.9 307.3l-11.2-8.3 12.7 1.5-1.5 6.8z"/><path fill="#C4808F" d="M383.4 309.2l-4-8.7-1.5 6.8 5.5 1.9z"/><path fill="#BF7784" d="M390.1 308.5l-6.7.7-4-8.7 10.7 8z"/><path fill="#E0AAAE" d="M366.7 299l5 7.9 6.2.4-11.2-8.3z"/><path fill="#E6BBBE" d="M362.9 307.8l8.8-.9-5-7.9-3.8 8.8z"/><path fill="#E0AAAE" d="M359.5 309.2l3.4-1.4 3.8-8.8-7.2 10.2z"/><path fill="#B86B7D" d="M391.1 314.2l-7.7-5 6.7-.7 1 5.7z"/><path fill="#C57D8A" d="M427.5 320.6l-4.6 2.8-.2-4.1 4.8 1.3z"/><path fill="#A85C73" d="M454.4 320.9l-3.8 11.6 6.5-10.1-2.7-1.5z"/><path fill="#954659" d="M447.1 324.1l3.5 8.4 3.8-11.6-7.3 3.2z"/><path fill="#CA8891" d="M422.9 323.4l12.8.2-8.2-3-4.6 2.8z"/><path fill="#E0AAAE" d="M436.4 330.6l-.7-7-12.8-.2 13.5 7.2z"/><path fill="#CA8D94" d="M442.5 324.9l-6.1 5.7-.7-7 6.8 1.3z"/><path fill="#A35169" d="M450.6 332.5l-8.1-7.6 4.6-.8 3.5 8.4z"/><path fill="#A85C73" d="M436.4 330.6l14.2 1.9-8.1-7.6-6.1 5.7z"/><path fill="#E0AAAE" d="M440.1 308.6l-6.3 6.6 7.2.6-.9-7.2z"/><path fill="#CA8D94" d="M450.6 310.2l-10.5-1.6.9 7.2 9.6-5.6z"/><path fill="#AC6378" d="M446.4 317.8l4.2-7.6-9.6 5.6 5.4 2z"/><path fill="#CA8891" d="M429.3 311.1l4.5 4.1 6.3-6.6-10.8 2.5z"/><path fill="#A85C73" d="M454.4 320.9l-8-3.1 4.2-7.6 3.8 10.7z"/><path fill="#A35169" d="M457.1 322.4l-2.7-1.5-3.8-10.7 6.5 12.2z"/><path fill="#C57D8A" d="M422.7 319.3l6.6-8.2 4.5 4.1-11.1 4.1z"/></g><g><path fill="#E0AAAE" d="M363.9 321.2l-4.4-12-.3 21.5 4.7-9.5zM387.5 329l-10.4-6.6-17.9 8.3 28.3-1.7z"/><path fill="#C4808F" d="M363.9 321.2l-4.7 9.5 17.9-8.3-13.2-1.2z"/><path fill="#ECCCCE" d="M387 320.4l.5 8.6 3.6-14.8-4.1 6.2z"/><path fill="#E6BBBE" d="M387.5 329l-10.4-6.6 9.9-2 .5 8.6z"/><path fill="#E0AAAE" d="M360 346.5l-13.5-2.3 17.8 33.7-4.3-31.4z"/><path fill="#ECCCCE" d="M346.5 344.2l12.7-13.5.8 15.8-13.5-2.3z"/><path fill="#EAD9DD" d="M347.8 322.3l-1.3 21.9 12.7-13.5-11.4-8.4z"/><path fill="#E7D2DB" d="M352.9 299.5l6.3 31.2-11.4-8.4 5.1-22.8z"/><path fill="#D5B0BA" d="M359.5 309.2l-.3 21.5-6.3-31.2 6.6 9.7z"/><path fill="#C4808F" d="M364.3 377.9l13.7-21 17.5 10.1-31.2 10.9z"/><path fill="#B86B7D" d="M364.3 377.9l13.7-21 1.3-11.5-15 32.5z"/><path fill="#CA8D94" d="M360 346.5l4.3 31.4 15-32.5-19.3 1.1z"/><path fill="#E0AAAE" d="M387.5 329l-8.2 16.4-19.3 1.1 27.5-17.5z"/><path fill="#E6BBBE" d="M387.5 329L360 346.5l-.8-15.8 28.3-1.7z"/><path fill="#C4808F" d="M392.9 337.1l-5.4-8.1-8.2 16.4 13.6-8.3z"/><path fill="#A35169" d="M390.1 308.5l9.5-8.4-8.5 14.1-1-5.7z"/><path fill="#A85C73" d="M379.4 300.5l20.2-.4-9.5 8.4-10.7-8z"/><path fill="#C4808F" d="M399.6 300.1l-8.5 14.1 6.9 2.5 1.6-16.6z"/><path fill="#AC6378" d="M375.1 291.6l4.3 8.9 20.2-.4-24.5-8.5z"/><path fill="#CA8D94" d="M387.5 329l10.5-12.3-5.1 20.4-5.4-8.1z"/><path fill="#BF7784" d="M391.1 314.2l-3.6 14.8 10.5-12.3-6.9-2.5zM366.7 299l12.7 1.5-4.3-8.9-8.4 7.4z"/><path fill="#C4808F" d="M358.8 290.6l7.9 8.4 8.4-7.4-16.3-1z"/><path fill="#CA8D94" d="M358.8 290.6l.7 18.6 7.2-10.2-7.9-8.4z"/><path fill="#EEDFE3" d="M352.9 299.5l.4-5.6 5.5-3.3-5.9 8.9z"/><path fill="#DDC0C8" d="M352.9 299.5l6.6 9.7-.7-18.6-5.9 8.9z"/><path fill="#CA8D94" d="M457.1 322.4l-6.5 10.1 1.5 8.7 5-18.8z"/><path fill="#AC6378" d="M469.3 360.4l-23.3-1-11.3 40.1 34.6-39.1z"/><path fill="#BF7784" d="M469.3 360.4l-17.2-19.2-6.1 18.2 23.3 1z"/><path fill="#B86B7D" d="M471.5 340.8l-19.4.4 17.2 19.2 2.2-19.6z"/><path fill="#C57D8A" d="M474 321.3l-2.5 19.5-19.4.4 21.9-19.9z"/><path fill="#CA8891" d="M457.1 322.4l-5 18.8 21.9-19.9-16.9 1.1z"/><path fill="#AC6378" d="M457.1 322.4l16.9-1.1-9.3-15.9-7.6 17z"/><path fill="#8F4353" d="M436 380.4l-13.8-21.6-14.6 7.8 28.4 13.8z"/><path fill="#7F344C" d="M422.8 348.9l13.2 31.5-13.8-21.6.6-9.9z"/><path fill="#A35169" d="M446 359.4l-23.2-10.5 13.2 31.5 10-21z"/><path fill="#A85C73" d="M446 359.4l-11.3 40.1 1.3-19.1 10-21z"/><path fill="#954659" d="M418.3 329l4.5 19.9 23.2 10.5-27.7-30.4z"/><path fill="#C4808F" d="M418.3 329l27.7 30.4 6.1-18.2-33.8-12.2z"/><path fill="#CA8D94" d="M452.1 341.2l-15.7-10.6-18.1-1.6 33.8 12.2z"/><path fill="#E0AAAE" d="M450.6 332.5l1.5 8.7-15.7-10.6 14.2 1.9z"/><path fill="#B86B7D" d="M422.9 323.4l-4.6 5.6 4.4-9.7.2 4.1z"/><path fill="#BF7784" d="M418.3 329l18.1 1.6-13.5-7.2-4.6 5.6z"/><path fill="#9C4A59" d="M422.7 319.3l-4.4 9.7.4-27 4 17.3z"/><path fill="#A85C73" d="M418.3 329l.4-27h-10.6l10.2 27z"/><path fill="#B86B7D" d="M408.1 302l10.2 27-4.8 10.9-5.4-37.9z"/><path fill="#A85C73" d="M418.3 329l-4.8 10.9 9.3 9-4.5-19.9z"/><path fill="#954659" d="M429.3 311.1l-10.6-9.1 4 17.3 6.6-8.2z"/><path fill="#A35169" d="M440.1 308.6l-21.4-6.6 10.6 9.1 10.8-2.5z"/><path fill="#AC6378" d="M445.3 298.6l-5.2 10-21.4-6.6 26.6-3.4z"/><path fill="#A85C73" d="M450.6 310.2l-5.3-11.6-5.2 10 10.5 1.6z"/><path fill="#A35169" d="M464.7 305.4l-14.1 4.8-5.3-11.6 19.4 6.8z"/><path fill="#954659" d="M457.1 322.4l7.6-17-14.1 4.8 6.5 12.2z"/></g><g><path fill="#570739" d="M422.2 358.8l-14.6 7.8 4.7-6.9 9.9-.9z"/><path fill="#590B3D" d="M395.5 367L378 356.9l11.3 1.3 6.2 8.8z"/><path fill="#954659" d="M412.3 359.7l-9.9-4-6.9 11.3 16.8-7.3z"/><path fill="#7F344C" d="M407.6 366.6l-12.1.4 16.8-7.3-4.7 6.9z"/><path fill="#A85C73" d="M395.5 367l-6.2-8.8 13.1-2.5-6.9 11.3z"/><path fill="#E0AAAE" d="M389.3 358.2l3.6-21.1-13.6 8.3 10 12.8z"/><path fill="#E6BBBE" d="M378 356.9l1.3-11.5 10 12.8-11.3-1.3z"/><path fill="#CA9BA9" d="M413.5 339.9l-1.2 19.8 9.9-.9-8.7-18.9z"/><path fill="#BD8293" d="M422.8 348.9l-.6 9.9-8.7-18.9 9.3 9z"/><path fill="#CA8D94" d="M392.9 337.1l9.5 18.6-13.1 2.5 3.6-21.1z"/><path fill="#99586B" d="M412.3 359.7l-4.2-57.7-5.7 53.7 9.9 4z"/><path fill="#954659" d="M413.5 339.9l-5.4-37.9 4.2 57.7 1.2-19.8z"/><path fill="#E0AAAE" d="M392.9 337.1l5.1-20.4 4.4 39-9.5-18.6z"/><path fill="#E6BBBE" d="M398 316.7l10.1-14.7-5.7 53.7-4.4-39z"/><path fill="#E0AAAE" d="M398 316.7l1.6-16.6 8.5 1.9-10.1 14.7z"/></g><g><path fill="#570E27" d="M421.1 385.2l-9.9-.2-11.5 2.7 21.4-2.5z"/><path fill="#954659" d="M399.7 387.7l-24.3-4.2 12.6-1.3 11.7 5.5z"/><path fill="#A85C73" d="M429.7 382.6l-21.6-3.8 13 6.4 8.6-2.6z"/><path fill="#BF7784" d="M411.2 385l9.9.2-13-6.4 3.1 6.2z"/><path fill="#E6BBBE" d="M388 382.2l-12.6 1.3 16.3-6.8-3.7 5.5z"/><path fill="#C4808F" d="M399.7 387.7l.8-6.8-8.8-4.2 8 11z"/><path fill="#E0AAAE" d="M408.1 378.8l-8.4 8.9.8-6.8 7.6-2.1z"/><path fill="#E6BBBE" d="M411.2 385l-11.5 2.7 8.4-8.9 3.1 6.2z"/><path fill="#E0AAAE" d="M399.7 387.7l-11.7-5.5 3.7-5.5 8 11zM368.5 380.9l6.9 2.6 16.3-6.8-23.2 4.2z"/><path fill="#7F344C" d="M411.8 396.4l17.9-13.8-8.6 2.6-9.3 11.2z"/><path fill="#C4808F" d="M398.9 392.6l-15.2 2.3 28.1 1.5-12.9-3.8zM375.4 383.5l-6.9-2.6 15.2 14-8.3-11.4zM398.9 392.6l22.2-7.4-9.3 11.2-12.9-3.8z"/><path fill="#EAD9DD" d="M375.4 383.5l23.5 9.1-15.2 2.3-8.3-11.4z"/><path fill="#E0AAAE" d="M398.9 392.6l.8-4.9 21.4-2.5-22.2 7.4z"/><path fill="#E6BBBE" d="M375.4 383.5l23.5 9.1.8-4.9-24.3-4.2z"/></g><g><path fill="#E0AAAE" d="M368.5 380.9l3.378 30.4 11.822-16.4-15.2-14z"/><path fill="#8F4353" d="M429.7 382.6l-5.1 30.4-12.8-16.6 17.9-13.8z"/><path fill="#B86B7D" d="M371.878 411.3l27.422-.6-8.5-11.4-18.922 12z"/><path fill="#7F344C" d="M424.6 413l-12.8-16.6-12.5 14.3 25.3 2.3z"/><path fill="#CA8D94" d="M383.7 394.9l7.1 4.4-18.922 12 11.822-16.4z"/><path fill="#954659" d="M399.9 423.7l-.6-13 25.3 2.3-24.7 10.7z"/><path fill="#A85C73" d="M379.4 417.2l19.9-6.5.6 13-20.5-6.5z"/><path fill="#C4808F" d="M371.878 411.3l7.522 5.9 19.9-6.5-27.422.6z"/></g><g><path fill="#A35169" d="M363.367 411.7l-5.492-17.4 4.625-.7.867 18.1z"/><path fill="#A85C73" d="M357.875 394.3l6.425-16.4-1.8 15.7-4.625.7z"/><path fill="#C4808F" d="M346.5 344.2l17.8 33.7-6.425 16.4-11.375-50.1z"/><path fill="#742C4B" d="M451 396.3l-16.3 3.2-4.4 20.8 20.7-24z"/><path fill="#7F3D55" d="M469.3 360.4L451 396.3l-16.3 3.2 34.6-39.1z"/><path fill="#500F30" d="M419.7 433.5l-26.4 7.4 6.6-17.2 19.8 9.8z"/><path fill="#590D3B" d="M424.6 413l-4.9 20.5-19.8-9.8 24.7-10.7z"/><path fill="#67163F" d="M393.3 440.9l-13.9-23.7 20.5 6.5-6.6 17.2z"/><path fill="#500F31" d="M370.2 426.9l9.2-9.7 13.9 23.7-23.1-14z"/><path fill="#5A0D3E" d="M371.878 411.3l-1.678 15.6 9.2-9.7-7.522-5.9z"/><path fill="#742C4B" d="M424.6 413l11.4-32.6-6.3 2.2-5.1 30.4z"/><path fill="#793752" d="M436 380.4l-1.3 19.1-10.1 13.5 11.4-32.6z"/><path fill="#631E3D" d="M434.7 399.5l-4.4 20.8-5.7-7.3 10.1-13.5z"/><path fill="#5C1038" d="M430.3 420.3l-10.6 13.2 4.9-20.5 5.7 7.3z"/><path fill="#6A1F50" d="M371.878 411.3l-7.578-33.4 4.2 3 3.378 30.4z"/><path fill="#76415F" d="M371.878 411.3l-8.51.4 6.832 15.2 1.678-15.6z"/><path fill="#824058" d="M364.3 377.9l-1.8 15.7 9.378 17.7-7.578-33.4z"/><path fill="#7E3C64" d="M362.5 393.6l.867 18.1 8.51-.4-9.377-17.7z"/><path fill="#722E55" d="M395.5 367l-3.8 9.7-27.4 1.2 31.2-10.9z"/><path fill="#5A0D3E" d="M400.5 380.9l-5-13.9-3.8 9.7 8.8 4.2z"/><path fill="#82415A" d="M364.3 377.9l4.2 3 23.2-4.2-27.4 1.2z"/><path fill="#500F30" d="M408.1 378.8l-.5-12.2 28.4 13.8-27.9-1.6z"/><path fill="#67163F" d="M408.1 378.8l-7.6 2.1 7.1-14.3.5 12.2z"/><path fill="#590D3B" d="M436 380.4l-6.3 2.2-21.6-3.8 27.9 1.6z"/><path fill="#500F31" d="M400.5 380.9l7.1-14.3-12.1.4 5 13.9z"/><path fill="#5C1341" d="M390.8 399.3l21-2.9-12.5 14.3-8.5-11.4z"/><path fill="#A35169" d="M411.8 396.4l-21 2.9-7.1-4.4 28.1 1.5z"/></g><g><path fill="#570E27" d="M457.4 424.1l-6.4-27.8-20.7 24 27.1 3.8z"/><path fill="#570D40" d="M435.4 457.3l-5.1-37 27.1 3.8-22 33.2z"/><path fill="#6E1B47" d="M419.7 433.5l15.7 23.8-5.1-37-10.6 13.2z"/><path fill="#954659" d="M386.8 474.1l48.6-16.8-15.7-23.8-32.9 40.6z"/><path fill="#A35169" d="M393.3 440.9l-6.5 33.2 32.9-40.6-26.4 7.4z"/><path fill="#AC6378" d="M386.8 474.1l-16.6-47.2 23.1 14-6.5 33.2z"/><path fill="#C4808F" d="M351.9 449.4l18.3-22.5 16.6 47.2-34.9-24.7z"/><path fill="#E0AAAE" d="M363.367 411.7L351.9 449.4l18.3-22.5-6.833-15.2z"/><path fill="#CA8D94" d="M343.7 420.2l19.667-8.5-11.467 37.7-8.2-29.2z"/><path fill="#E0AAAE" d="M357.875 394.3L343.7 420.2l19.667-8.5-5.492-17.4z"/></g><g><path fill="#793F71" d="M343.7 420.2l-11.6 8.5 19.8 20.7-8.2-29.2z"/><path fill="#723368" d="M342.6 460.6l9.3-11.2-19.8-20.7 10.5 31.9z"/><path fill="#682764" d="M386.3 489l-43.7-28.4 9.3-11.2 34.4 39.6z"/><path fill="#6C2559" d="M386.3 489l-34.4-39.6 34.9 24.7-.5 14.9z"/><path fill="#661D51" d="M386.3 489l.5-14.9 55.4-4.5-55.9 19.4z"/><path fill="#59153C" d="M386.8 474.1l55.4-4.5-6.8-12.3-48.6 16.8z"/><path fill="#500F31" d="M442.2 469.6l23.5-37.9-30.3 25.6 6.8 12.3z"/><path fill="#570E27" d="M457.4 424.1l8.3 7.6-30.3 25.6 22-33.2z"/></g><g><path fill="#793F71" d="M264.2 451.8l67.9-23.1 10.5 31.9-78.4-8.8z"/><path fill="#723368" d="M264.2 451.8L222 502.425 342.6 460.6l-78.4-8.8z"/><path fill="#733767" d="M222 502.425l80.6 38.275 40-80.1L222 502.425z"/><path fill="#681F5A" d="M302.6 540.7l40-80.1 43.7 28.4-83.7 51.7z"/><path fill="#661D51" d="M302.6 540.7l160.7 10.5-77-62.2-83.7 51.7z"/><path fill="#500F30" d="M442.2 469.6l21.1 81.6-77-62.2 55.9-19.4z"/><path fill="#570D40" d="M576.9 520.7l-113.6 30.5-21.1-81.6 134.7 51.1z"/><path fill="#570F23" d="M529.7 469.8l47.2 50.9-134.7-51.1 87.5.2z"/><path fill="#570E27" d="M442.2 469.6l87.5.2-64-38.1-23.5 37.9z"/></g><g fill="none" stroke="#000" stroke-miterlimit="10"><path d="M200 570l35-32-13-35.575L200 570zM302.6 540.7L235 538l-13-35.575 80.6 38.275zM248 556l112 44-57.4-59.3L248 556zM463.3 551.2l-79.8 30.9-80.9-41.4 160.7 10.5zM538 560l-102 28 27.3-36.8L538 560zM463.3 551.2L538 560l38.9-39.3-113.6 30.5zM600 600l-23.1-79.3L538 560l62 40z"/></g></svg>